<svg width="418" height="118" viewBox="0 0 418 118" fill="none" xmlns="http://www.w3.org/2000/svg">
<path d="M20.528 63.664C20.528 66.736 21.0827 69.3387 22.192 71.472C23.3013 73.6053 24.752 75.3547 26.544 76.72C28.4213 78 30.5973 78.9813 33.072 79.664C35.5467 80.2613 38.1067 80.56 40.752 80.56C42.544 80.56 44.464 80.432 46.512 80.176C48.56 79.8347 50.48 79.2373 52.272 78.384C54.064 77.5307 55.5573 76.3787 56.752 74.928C57.9467 73.392 58.544 71.472 58.544 69.168C58.544 66.6933 57.7333 64.688 56.112 63.152C54.576 61.616 52.528 60.336 49.968 59.312C47.408 58.288 44.5067 57.392 41.264 56.624C38.0213 55.856 34.736 55.0027 31.408 54.064C27.9947 53.2107 24.6667 52.1867 21.424 50.992C18.1813 49.712 15.28 48.0907 12.72 46.128C10.16 44.1653 8.06933 41.7333 6.448 38.832C4.912 35.8453 4.144 32.2613 4.144 28.08C4.144 23.3867 5.12533 19.3333 7.088 15.92C9.136 12.4213 11.7813 9.52 15.024 7.216C18.2667 4.91199 21.936 3.20533 26.032 2.09599C30.128 0.986664 34.224 0.431999 38.32 0.431999C43.0987 0.431999 47.664 0.986664 52.016 2.09599C56.4533 3.12 60.3787 4.82666 63.792 7.216C67.2053 9.60533 69.8933 12.6773 71.856 16.432C73.904 20.1013 74.928 24.5813 74.928 29.872H55.472C55.3013 27.1413 54.704 24.88 53.68 23.088C52.7413 21.296 51.4613 19.888 49.84 18.864C48.2187 17.84 46.3413 17.1147 44.208 16.688C42.16 16.2613 39.8987 16.048 37.424 16.048C35.8027 16.048 34.1813 16.2187 32.56 16.56C30.9387 16.9013 29.4453 17.4987 28.08 18.352C26.8 19.2053 25.7333 20.272 24.88 21.552C24.0267 22.832 23.6 24.4533 23.6 26.416C23.6 28.208 23.9413 29.6587 24.624 30.768C25.3067 31.8773 26.6293 32.9013 28.592 33.84C30.64 34.7787 33.4133 35.7173 36.912 36.656C40.496 37.5947 45.1467 38.7893 50.864 40.24C52.5707 40.5813 54.9173 41.2213 57.904 42.16C60.976 43.0133 64.0053 44.4213 66.992 46.384C69.9787 48.3467 72.5387 50.992 74.672 54.32C76.8907 57.5627 78 61.744 78 66.864C78 71.0453 77.1893 74.928 75.568 78.512C73.9467 82.096 71.5147 85.2107 68.272 87.856C65.1147 90.416 61.1467 92.4213 56.368 93.872C51.6747 95.3227 46.2133 96.048 39.984 96.048C34.9493 96.048 30.0427 95.408 25.264 94.128C20.5707 92.9333 16.3893 91.0133 12.72 88.368C9.136 85.7227 6.27733 82.352 4.144 78.256C2.01067 74.16 0.986667 69.296 1.072 63.664H20.528ZM103.397 60.976C103.397 63.6213 103.653 66.224 104.165 68.784C104.677 71.2587 105.53 73.52 106.725 75.568C108.005 77.5307 109.626 79.1093 111.589 80.304C113.637 81.4987 116.154 82.096 119.141 82.096C122.128 82.096 124.602 81.5413 126.565 80.432C128.613 79.2373 130.234 77.7013 131.429 75.824C132.709 73.8613 133.605 71.6427 134.117 69.168C134.714 66.608 135.013 63.9627 135.013 61.232C135.013 58.672 134.714 56.112 134.117 53.552C133.605 50.992 132.752 48.688 131.557 46.64C130.362 44.592 128.741 42.928 126.693 41.648C124.73 40.368 122.341 39.728 119.525 39.728C116.538 39.728 114.021 40.3253 111.973 41.52C109.925 42.7147 108.261 44.336 106.981 46.384C105.701 48.3467 104.762 50.608 104.165 53.168C103.653 55.6427 103.397 58.2453 103.397 60.976ZM152.549 117.168H134.373V85.68H134.117C131.984 89.264 128.997 91.824 125.157 93.36C121.317 94.896 117.349 95.664 113.253 95.664C110.181 95.664 106.981 95.1093 103.653 94C100.41 92.8053 97.4237 90.8853 94.693 88.24C91.9623 85.5093 89.701 81.968 87.909 77.616C86.117 73.1787 85.221 67.76 85.221 61.36C85.221 56.8373 85.8183 52.4427 87.013 48.176C88.2077 43.9093 90.0423 40.1547 92.517 36.912C94.9917 33.584 98.0637 30.9387 101.733 28.976C105.488 27.0133 109.882 26.032 114.917 26.032C119.013 26.032 122.853 26.8427 126.437 28.464C130.106 30 132.965 32.6027 135.013 36.272H135.269V27.824H152.549V117.168ZM228.367 94H211.087V84.784H210.703C208.399 88.624 205.412 91.3973 201.743 93.104C198.074 94.8107 194.319 95.664 190.479 95.664C185.615 95.664 181.604 95.024 178.447 93.744C175.375 92.464 172.943 90.672 171.151 88.368C169.359 85.9787 168.079 83.12 167.311 79.792C166.628 76.3787 166.287 72.624 166.287 68.528V27.824H184.463V65.2C184.463 70.6613 185.316 74.7573 187.023 77.488C188.73 80.1333 191.759 81.456 196.111 81.456C201.06 81.456 204.644 80.0053 206.863 77.104C209.082 74.1173 210.191 69.2533 210.191 62.512V27.824H228.367V94ZM260.85 17.584H242.674V2.60799H260.85V17.584ZM242.674 27.824H260.85V94H242.674V27.824ZM275.162 27.824H292.442V40.112H292.698C293.551 38.064 294.703 36.1867 296.154 34.48C297.605 32.688 299.269 31.1947 301.146 30C303.023 28.72 305.029 27.7387 307.162 27.056C309.295 26.3733 311.514 26.032 313.818 26.032C315.013 26.032 316.335 26.2453 317.786 26.672V43.568C316.933 43.3973 315.909 43.2693 314.714 43.184C313.519 43.0133 312.367 42.928 311.258 42.928C307.93 42.928 305.114 43.4827 302.81 44.592C300.506 45.7013 298.629 47.2373 297.178 49.2C295.813 51.0773 294.831 53.296 294.234 55.856C293.637 58.416 293.338 61.1893 293.338 64.176V94H275.162V27.824ZM367.206 53.808C366.353 49.2 364.817 45.7013 362.598 43.312C360.465 40.9227 357.179 39.728 352.742 39.728C349.841 39.728 347.409 40.24 345.446 41.264C343.569 42.2027 342.033 43.3973 340.838 44.848C339.729 46.2987 338.918 47.8347 338.406 49.456C337.979 51.0773 337.723 52.528 337.638 53.808H367.206ZM337.638 65.328C337.894 71.216 339.387 75.4827 342.118 78.128C344.849 80.7733 348.774 82.096 353.894 82.096C357.563 82.096 360.721 81.2 363.366 79.408C366.011 77.5307 367.633 75.568 368.23 73.52H384.23C381.67 81.456 377.745 87.1307 372.454 90.544C367.163 93.9573 360.763 95.664 353.254 95.664C348.049 95.664 343.355 94.8533 339.174 93.232C334.993 91.5253 331.451 89.136 328.55 86.064C325.649 82.992 323.387 79.3227 321.766 75.056C320.23 70.7893 319.462 66.096 319.462 60.976C319.462 56.0267 320.273 51.4187 321.894 47.152C323.515 42.8853 325.819 39.216 328.806 36.144C331.793 32.9867 335.334 30.512 339.43 28.72C343.611 26.928 348.219 26.032 353.254 26.032C358.886 26.032 363.793 27.1413 367.974 29.36C372.155 31.4933 375.569 34.3947 378.214 38.064C380.945 41.7333 382.907 45.9147 384.102 50.608C385.297 55.3013 385.723 60.208 385.382 65.328H337.638Z" fill="white"/>
<path d="M396.93 74.288H417.026V94H396.93V74.288Z" fill="#B40303"/>
</svg>
